<svg width="21" height="18" viewBox="0 0 21 18" fill="none" xmlns="http://www.w3.org/2000/svg">
<path d="M10.0768 17.9302C9.7898 17.9302 9.51319 17.8262 9.29763 17.6374C8.48347 16.9255 7.69854 16.2565 7.00602 15.6664L7.00248 15.6633C4.97216 13.9331 3.2188 12.4388 1.99886 10.9668C0.635132 9.32132 0 7.76113 0 6.05668C0 4.40067 0.567835 2.873 1.59873 1.75466C2.642 0.623111 4.0735 0 5.63004 0C6.7934 0 7.85883 0.367715 8.79662 1.09301C9.26982 1.45919 9.69882 1.90716 10.0768 2.42986C10.4549 1.90716 10.8838 1.45919 11.3571 1.09301C12.2949 0.367715 13.3603 0 14.5237 0C16.08 0 17.5117 0.623111 18.555 1.75466C19.5859 2.873 20.1536 4.40067 20.1536 6.05668C20.1536 7.76113 19.5186 9.32132 18.1548 10.9667C16.9349 12.4388 15.1818 13.9328 13.1517 15.663C12.4579 16.254 11.6717 16.924 10.8557 17.6377C10.6403 17.8262 10.3635 17.9302 10.0768 17.9302ZM5.63004 1.18058C4.40715 1.18058 3.28385 1.66862 2.46663 2.55479C1.63727 3.45451 1.18046 4.69814 1.18046 6.05668C1.18046 7.49018 1.71317 8.77222 2.90777 10.2136C4.0623 11.6068 5.77971 13.0702 7.76808 14.7649L7.77173 14.768C8.46686 15.3603 9.25497 16.032 10.075 16.7492C10.9001 16.0306 11.6894 15.358 12.386 14.7646C14.3742 13.07 16.0914 11.6068 17.2459 10.2136C18.4404 8.77222 18.9731 7.49018 18.9731 6.05668C18.9731 4.69814 18.5163 3.45451 17.6869 2.55479C16.8698 1.66862 15.7463 1.18058 14.5237 1.18058C13.6278 1.18058 12.8054 1.46532 12.0792 2.02679C11.432 2.52745 10.9812 3.16034 10.7169 3.60313C10.581 3.83095 10.3417 3.96684 10.0768 3.96684C9.81184 3.96684 9.57259 3.83095 9.4367 3.60313C9.17247 3.16034 8.72166 2.52745 8.07439 2.02679C7.34816 1.46532 6.52575 1.18058 5.63004 1.18058Z" fill="#F58634"/>
</svg>
