<svg width="48" height="48" viewBox="0 0 48 48" fill="none" xmlns="http://www.w3.org/2000/svg">
<mask id="mask0_810_388" style="mask-type:alpha" maskUnits="userSpaceOnUse" x="0" y="0" width="48" height="48">
<rect width="48" height="48" fill="white"/>
</mask>
<g mask="url(#mask0_810_388)">
<path d="M41 13.4088C39.698 13.987 38.312 14.3702 36.866 14.5562C38.353 13.6569 39.488 12.2438 40.022 10.5405C38.635 11.3777 37.104 11.9691 35.472 12.2991C34.155 10.8793 32.278 10 30.231 10C26.258 10 23.06 13.2649 23.06 17.2674C23.06 17.8432 23.108 18.397 23.227 18.9242C17.261 18.6296 11.983 15.7346 8.437 11.3246C7.818 12.4121 7.455 13.6569 7.455 14.997C7.455 17.5132 8.734 19.7437 10.642 21.035C9.489 21.0129 8.358 20.674 7.4 20.1402C7.4 20.1623 7.4 20.1911 7.4 20.2199C7.4 23.7506 9.887 26.6832 13.149 27.3588C12.565 27.5205 11.928 27.598 11.267 27.598C10.808 27.598 10.344 27.5714 9.909 27.474C10.839 30.3512 13.477 32.4665 16.614 32.5352C14.173 34.4688 11.073 35.6339 7.717 35.6339C7.129 35.6339 6.564 35.6073 6 35.5343C9.178 37.6097 12.945 38.7947 17.007 38.7947C30.211 38.7947 37.43 27.7198 37.43 18.1201C37.43 17.7989 37.419 17.4888 37.404 17.181C38.828 16.1576 40.024 14.8796 41 13.4088Z" fill="#F58634"/>
</g>
</svg>
